<?xml version="1.0" encoding="utf-8"?>
<svg xmlns="http://www.w3.org/2000/svg" xmlns:xlink="http://www.w3.org/1999/xlink" viewBox="-60,-60,260,320" style="color-scheme:dark light" aria-describedby="desc">
<title>Number Space: Two Squares</title>
<style>
	#bl, #or { dominant-baseline: middle; text-anchor: middle; }
	text, p { font: 4px sans-serif; }
	p { color: Black; line-height: 1.3; margin: 0 5px; }
	p.url { letter-spacing: 0.3px; }
	p.gap { margin-top: 3px; }
	p a { color: Black; }
	@media print {
		#shading { display: none; }
		p a { text-decoration: none; }
	}
	@page { margin-top: -0.2in; } /* for Safari */
</style>
<metadata>
<about xmlns="https://6t.lt/about">
	First drawn in October or November 2025, then converted to SVG. The CSS is set up for print output, but it doesn't always work. Firefox made a blurry PDF, Edge was good, Safari was also good.
</about>
</metadata>
<defs>
	<path id="one" d="M0,0H6V6H0V0L2,2V4H4V2H2Z"/>
	<path id="U" d="M0,6V0H6L4,2H2V4Z"/>
	<path id="J" d="M0,0V3H2V2ZM6,0H3V2H4ZM6,6V3H4V4ZM0,6H3V4H2Z"/>
	<path id="K" d="M0,0H3V2H2V3H0ZM4,4V3H6V6H3V4Z"/>
	<path id="Z" d="M0,0H6V3H4V2H2V3H0Z"/>
	<path id="B" d="M0,0H6L4,2H2ZM0,6H6L4,4H2Z"/>
	<path id="arrow" d="M0,0L6-2,5.5-.5H60.5l-1,1H5.5L6,2Z"/>
	<text id="bl" fill="#1AF" lengthAdjust="spacingAndGlyphs" textLength="16">blue side</text>
	<text id="or" fill="#FA1" lengthAdjust="spacingAndGlyphs" textLength="20">orange side</text>
</defs>
<path fill="none" stroke="White" stroke-opacity="0.4" stroke-width="50" d="M70-35h130M-60,245h110"/>
<foreignObject x="70" y="-57" width="130" height="50">
<p xmlns="http://www.w3.org/1999/xhtml" id="desc">
	These Sudoku puzzles are based on <a href="https://en.wikipedia.org/wiki/Fundamental_polygon#Examples_of_fundamental_polygons_generated_by_parallelograms">fundamental polygons</a> for the real projective plane and the sphere. Both have 27 cells, and are set on a square with its sides connected together. The rows and columns pass through the sides of the square, wrapping around in a way similar to Pac-Man. The four surrounding copies of each puzzle are there just to make solving easier. Each puzzle has its own set of nine symbols, and you can't treat the symbols like colors as in regular Sudoku.
</p>
</foreignObject>
<foreignObject x="-60" y="224" width="110" height="40">
<footer xmlns="http://www.w3.org/1999/xhtml" id="foot">
	<p>Number Space: Two Squares</p>
	<p class="url">https://home.6t.lt/690/ns-squares.svg</p>
	<p class="gap">Copyright © 2025, Matthew Richardson</p>
	<p class="gap">Licensed under CC Attribution-NoDerivatives</p>
	<p class="url">https://creativecommons.org/licenses/by-nd/4.0/</p>
</footer>
</foreignObject>
<g id="proj-plane">
	<g id="backing" fill="none">
		<path stroke="White" stroke-opacity="0.4" stroke-width="30" d="M0,45H45V0"/>
		<path id="shading" stroke="Black" stroke-opacity="0.7" stroke-width="30" d="M0,15H15V0"/>
		<g stroke="Black">
			<path stroke-width="0.4" d="M10,30V60M20,30V60M40,0V60M50,0V60M30,10H60M30,20H60M0,40H60M0,50H60"/>
			<path d="M30,0V60M0,30H60"/>
		</g>
	</g>
	<g fill="Black">
		<use href="#U" xlink:href="#U" x="42" y="2"/>
		<use href="#U" xlink:href="#U" x="52" y="12" transform="rotate(180,55,15)"/>
		<use href="#B" xlink:href="#B" x="32" y="22" transform="rotate(90,35,25)"/>
		<use href="#K" xlink:href="#K" x="42" y="22"/>
		<use href="#one" xlink:href="#one" x="12" y="32"/>
		<use href="#U" xlink:href="#U" x="22" y="32"/>
		<use href="#B" xlink:href="#B" x="32" y="32"/>
		<use href="#K" xlink:href="#K" x="2" y="42" transform="rotate(90,5 45)"/>
		<use href="#U" xlink:href="#U" x="22" y="52" transform="rotate(180,25,55)"/>
		<use href="#U" xlink:href="#U" x="32" y="52"/>
	</g>
</g>
<g opacity="0.5">
	<use href="#proj-plane" xlink:href="#proj-plane" transform="translate(60,-60)scale(-1,1)"/>
	<use href="#proj-plane" xlink:href="#proj-plane" transform="translate(60,60)scale(-1,1)"/>
	<use href="#proj-plane" xlink:href="#proj-plane" transform="translate(60,60)scale(1,-1)"/>
	<use href="#proj-plane" xlink:href="#proj-plane" transform="translate(-60,60)scale(1,-1)"/>
</g>
<use href="#arrow" xlink:href="#arrow" fill="#FA1"/>
<use href="#arrow" xlink:href="#arrow" fill="#FA1" transform="translate(60,60)rotate(180)"/>
<use href="#arrow" xlink:href="#arrow" fill="#1AF" transform="translate(60,60)rotate(90)scale(-1,1)"/>
<use href="#arrow" xlink:href="#arrow" fill="#1AF" transform="rotate(90)scale(1,-1)"/>
<use href="#bl" xlink:href="#bl" transform="translate(3,21)rotate(90)"/>
<use href="#bl" xlink:href="#bl" transform="translate(63,39)rotate(90)scale(-1,1)"/>
<use href="#or" xlink:href="#or" transform="translate(19,3)"/>
<use href="#or" xlink:href="#or" transform="translate(41,63)scale(-1,1)"/>
<g transform="translate(80,140)">
	<g id="sphere">
		<use href="#backing" xlink:href="#backing"/>
		<g fill="Black">
			<use href="#Z" xlink:href="#Z" x="32" y="22" transform="rotate(180,35,25)"/>
			<use href="#B" xlink:href="#B" x="42" y="22"/>
			<use href="#Z" xlink:href="#Z" x="52" y="22" transform="rotate(270,55,25)"/>
			<use href="#J" xlink:href="#J" x="2" y="32"/>
			<use href="#Z" xlink:href="#Z" x="42" y="32" transform="rotate(180,45,35)"/>
			<use href="#B" xlink:href="#B" x="52" y="32" transform="rotate(90,55,35)"/>
			<use href="#J" xlink:href="#J" x="2" y="42" transform="translate(10)scale(-1,1)"/>
			<use href="#B" xlink:href="#B" x="12" y="42"/>
			<use href="#one" xlink:href="#one" x="22" y="42"/>
			<use href="#one" xlink:href="#one" x="42" y="52"/>
		</g>
	</g>
	<g opacity="0.5">
		<use href="#sphere" xlink:href="#sphere" transform="translate(60,-60)rotate(90)"/>
		<use href="#sphere" xlink:href="#sphere" transform="translate(60,60)rotate(90)"/>
		<use href="#sphere" xlink:href="#sphere" transform="translate(60,60)rotate(270)"/>
		<use href="#sphere" xlink:href="#sphere" transform="translate(-60,60)rotate(270)"/>
	</g>
	<use href="#arrow" xlink:href="#arrow" fill="#FA1" transform="translate(60)scale(-1,1)"/>
	<use href="#arrow" xlink:href="#arrow" fill="#FA1" transform="translate(60)rotate(90)"/>
	<use href="#arrow" xlink:href="#arrow" fill="#1AF" transform="translate(0,60)scale(1,-1)"/>
	<use href="#arrow" xlink:href="#arrow" fill="#1AF" transform="translate(0,60)rotate(270)"/>
	<use href="#bl" xlink:href="#bl" transform="translate(3,21)rotate(90)"/>
	<use href="#or" xlink:href="#or" transform="translate(63,41)rotate(270)"/>
	<use href="#or" xlink:href="#or" transform="translate(19,3)"/>
	<use href="#bl" xlink:href="#bl" transform="translate(39,63)rotate(180)"/>
</g>
</svg>
