<?xml version="1.0" encoding="utf-8"?><svg xmlns="http://www.w3.org/2000/svg" viewBox="0,0,16,16" style="color-scheme:dark light" fill="Red"><path d="M0,11a3,3,0,0,1,3-3h3a5,5,0,0,1,5,5h2v-3a2,2,0,0,0-2-2,3,3,0,0,1-3-3v-2a3,3,0,0,1,3-3h3a5,5,0,0,1,5,5h-3a2,2,0,0,0-2-2h-3v2a5,5,0,0,1,5,5v3a3,3,0,0,1-3,3h-2a3,3,0,0,1-3-3,2,2,0,0,0-2-2h-3v2a5,5,0,0,1,5,5l-5-2a3,3,0,0,1-3-3z" fill-opacity=".6"/><path d="M1,11a2,2,0,0,1,2-2h3a4,4,0,0,1,4,4,1,1,0,0,0,1,1h2a1,1,0,0,0,1-1v-3a3,3,0,0,0-3-3,2,2,0,0,1-2-2v-2a2,2,0,0,1,2-2h3a4,4,0,0,1,4,4h-1a3,3,0,0,0-3-3h-3a1,1,0,0,0-1,1v2a1,1,0,0,0,1,1,4,4,0,0,1,4,4v3a2,2,0,0,1-2,2h-2a2,2,0,0,1-2-2,3,3,0,0,0-3-3h-3a1,1,0,0,0-1,1v2a1,1,0,0,0,1,1,4,4,0,0,1,4,4h-1a3,3,0,0,0-3-3,2,2,0,0,1-2-2z"/></svg>