{
	"accessors": [
		{
			"bufferView": 0,
			"componentType": 5126,
			"count": 4,
			"max": [
				1,
				1,
				0
			],
			"min": [
				0,
				0,
				0
			],
			"name": "tl-tr-bl-br",
			"type": "VEC3"
		},
		{
			"bufferView": 1,
			"componentType": 5126,
			"count": 4,
			"max": [
				1,
				1,
				0
			],
			"min": [
				0,
				0,
				0
			],
			"name": "bl-br-tr-tl",
			"type": "VEC3"
		},
		{
			"bufferView": 2,
			"componentType": 5126,
			"count": 3,
			"max": [
				4
			],
			"min": [
				0
			],
			"name": "fold-120-input",
			"type": "SCALAR"
		},
		{
			"bufferView": 3,
			"componentType": 5126,
			"count": 3,
			"name": "fold-120-output",
			"type": "VEC4"
		}
	],
	"animations": [
		{
			"channels": [
				{
					"sampler": 0,
					"target": {
						"node": 1,
						"path": "rotation"
					}
				},
				{
					"sampler": 0,
					"target": {
						"node": 3,
						"path": "rotation"
					}
				}
			],
			"samplers": [
				{
					"input": 2,
					"interpolation": "LINEAR",
					"output": 3
				}
			]
		}
	],
	"asset": {
		"version": "2.0"
	},
	"buffers": [
		{
			"byteLength": 132,
			"extras": {
				"js": "new Uint8Array(new Float32Array([  0,0,0,   1,0,0,   0,1,0,   1,1,0,   1,0,0,   0,0,0,   0,   2,   4,   0,0,0,1,   0,0.866,0,0.5,   0,0,0,1  ]).buffer).toBase64()"
			},
			"uri": "data:application/gltf-buffer;base64,"
		}
	],
	"bufferViews": [
		{
			"buffer": 0,
			"byteLength": 48,
			"byteOffset": 0,
			"target": 34962
		},
		{
			"buffer": 0,
			"byteLength": 48,
			"byteOffset": 24,
			"target": 34962
		},
		{
			"buffer": 0,
			"byteLength": 12,
			"byteOffset": 72
		},
		{
			"buffer": 0,
			"byteLength": 48,
			"byteOffset": 84
		}
	],
	"materials": [
		{
			"alphaMode": "BLEND",
			"doubleSided": true,
			"pbrMetallicRoughness": {
				"baseColorFactor": [
					1,
					0,
					0,
					0.5
				]
			}
		},
		{
			"pbrMetallicRoughness": {
				"baseColorFactor": [
					0.5,
					0.5,
					0.5,
					1
				]
			}
		}
	],
	"meshes": [
		{
			"primitives": [
				{
					"attributes": {
						"POSITION": 0
					},
					"material": 0,
					"mode": 5
				},
				{
					"attributes": {
						"POSITION": 1
					},
					"material": 1,
					"mode": 2
				}
			]
		}
	],
	"nodes": [
		{
			"children": [
				1
			],
			"mesh": 0,
			"name": "face-1"
		},
		{
			"children": [
				2
			],
			"name": "edge-1"
		},
		{
			"children": [
				3
			],
			"mesh": 0,
			"name": "face-2",
			"translation": [
				-1,
				0,
				0
			]
		},
		{
			"children": [
				4
			],
			"name": "edge-2"
		},
		{
			"mesh": 0,
			"name": "face-3",
			"translation": [
				-1,
				0,
				0
			]
		}
	],
	"scene": 0,
	"scenes": [
		{
			"nodes": [
				0
			]
		}
	]
}