<?xml version="1.0" encoding="utf-8"?><!--

ForestGreen
leaf A (background)
-1e6 0
-579192 579192
0 1e6
579192 579192
1e6 0
579192 -579192
0 -1e6
-579192 -579192

∧ DarkGreen
leaf B
-675120 -447159
-579192 -579192
0 -1e6
579192 -579192
1e6 0
633897 503897

∧ OliveDrab
leaf C
-667488 457664
-579192 579192
0 1e6
579192 579192
1e6 0
979151 -028696

∧ OliveDrab
leaf D
-640156 -495283
-579192 -579192
0 -1e6
579192 -579192
717938 -388226

∧ LightPink
bud A
-743307 353307
-643040 382690
-579192 299983
-515345 382690
-415077 353307
-412037 457747
-313649 492912
-372577 579192
-356111 603301
-421719 693603
-579192 579192

∧ LightPink
bud B
-743307 -353307
-643040 -382690
-579192 -299983
-515345 -382690
-415077 -353307
-412037 -457747
-313649 -492912
-372577 -579192
-356111 -603301
-421719 -693603
-579192 -579192

∧ LightPink
bud C
140646 447293
098445 378612
178772 385369
185000 305000
246014 357681
298292 296322
316688 374805
395048 355893
363800 430200
438311 460959
369354 502707
411555 571388
352437 566415
086572 480030

∧ LightPink
bud D
017108 -041337
035106 045161
104597 -009399
170000 050000
194150 -034985
281976 -025374
251561 -108323
328263 -152170
254900 -201400
291181 -281957
202892 -278663
184894 -365161
115403 -310601
050000 -370000
025850 -285015
-061976 -294627
-031561 -211677
-108263 -167830
-034900 -118600
-071181 -038043

∧ SeaShell
flower A
-421719 693603
-199109 387307
521273 621273
0 1e6

∧ SeaShell
flower B
724243 379547
448486 179198
659146 -469146
1e6 0

∧ SeaShell
flower C
521273 -621273
-199109 -387307
-421719 -693603
0 -1e6

https://home.6t.lt/679/?f-name=Make+Mountain+Laurels&f=return+%60%3Csvg+xmlns=%22http://www.w3.org/2000/svg%22+width=%226in%22+height=%226in%22+viewBox=%22-1e6+-1e6+2e6+2e6%22%3E$%7Bthis.split(%22%E2%88%A7%22).map(s=%3E%60%3Cpath+fill=%22$%7Bs.slice(0,s.indexOf(%22%5Cn%22)).trim()%7D%22+$%7Bs.getPolygonPath()%7D/%3E%60).join(%22%22)%7D%3C/svg%3E%60.toWebpage(0,true)

anthers
-316289 770203
-120812 628180
120812 628180
316289 770203
793183 284660
665362 108731
665362 -108731
793183 -284660
316289 -770203
120812 -628180
-120812 -628180
-316289 -770203

-->
<svg xmlns="http://www.w3.org/2000/svg" width="6in" height="6in" viewBox="-1e6 -1e6 2e6 2e6"><path fill="ForestGreen" d="M-1e6,0l420808,579192L0,1e6L579192,579192L1e6,0L579192,-579192L0,-1e6l-579192,420808Z"/><path fill="DarkGreen" d="M-675120,-447159l95928,-132033L0,-1e6l579192,420808L1e6,0L633897,503897Z"/><path fill="OliveDrab" d="M-667488,457664l88296,121528L0,1e6L579192,579192L1e6,0L979151,-28696Z"/><path fill="OliveDrab" d="M-640156,-495283l60964,-83909L0,-1e6l579192,420808l138746,190966Z"/><path fill="LightPink" d="M-743307,353307l100267,29383l63848,-82707l63847,82707l100268,-29383l3040,104440l98388,35165l-58928,86280l16466,24109l-65608,90302L-579192,579192Z"/><path fill="LightPink" d="M-743307,-353307l100267,-29383l63848,82707l63847,-82707l100268,29383l3040,-104440l98388,-35165l-58928,-86280l16466,-24109l-65608,-90302l-157473,114411Z"/><path fill="LightPink" d="M140646,447293L98445,378612l80327,6757L185e3,305e3l61014,52681l52278,-61359l18396,78483l78360,-18912l-31248,74307l74511,30759l-68957,41748l42201,68681l-59118,-4973L86572,480030Z"/><path fill="LightPink" d="M17108,-41337L35106,45161L104597,-9399L17e4,5e4l24150,-84985l87826,9611l-30415,-82949l76702,-43847l-73363,-49230l36281,-80557l-88289,3294l-17998,-86498l-69491,54560L5e4,-37e4l-24150,84985l-87826,-9612l30415,82950l-76702,43847l73363,49230l-36281,80557Z"/><path fill="SeaShell" d="M-421719,693603L-199109,387307L521273,621273L0,1e6Z"/><path fill="SeaShell" d="M724243,379547L448486,179198L659146,-469146L1e6,0Z"/><path fill="SeaShell" d="M521273,-621273l-720382,233966L-421719,-693603L0,-1e6Z"/></svg>