<svg xmlns="http://www.w3.org/2000/svg" viewBox="-1280 -1280 2560 2560" fill="none">
  <path id="edges" d="M55,1259L0,1200 L110,1255L208,1182L0,866H500L410,1128L208,1182L219,1241M0,1260L28,1280L55,1259L84,1277L110,1255L139,1272L164,1249L195,1265L219,1241L250,1255L273,1230L379,1202L411,1212L431,1184L464,1193L482,1164L516,1172L532,1142L410,1128L482,1164M164,1249L208,1182L273,1230M379,1202L410,1128L431,1184M500,866L568,1091L532,1142M568,1091H630" stroke="red" stroke-width="4"/>
  <path d="M0,1260V-1260M1091,630L-1091-630M1091-630L-1091,630" stroke="red" stroke-width="4"/>
  <use href="#edges" transform="rotate(60)"/>
  <use href="#edges" transform="rotate(120)"/>
  <use href="#edges" transform="rotate(180)"/>
  <use href="#edges" transform="rotate(240)"/>
  <use href="#edges" transform="rotate(300)"/>
  <use href="#edges" transform="scale(-1,1)"/>
  <use href="#edges" transform="scale(-1,1)rotate(60)"/>
  <use href="#edges" transform="scale(-1,1)rotate(120)"/>
  <use href="#edges" transform="scale(-1,1)rotate(180)"/>
  <use href="#edges" transform="scale(-1,1)rotate(240)"/>
  <use href="#edges" transform="scale(-1,1)rotate(300)"/>
</svg>
