<?xml version="1.0" encoding="utf-8"?>
<svg xmlns="http://www.w3.org/2000/svg" viewBox="3.6997,8.5054,110.1734,54.4334">
<title></title><desc></desc>
<metadata><about xmlns="https://6t.lt/about"><![CDATA[
Initially created at https://home.6t.lt/66c/mirror-polygon.svg?d=12&m=5&p=20,30&v=%5B%5B1,0%5D,%5B0.57919,0.57919%5D,%5B0,1%5D,%5B-0.57919,0.57919%5D,%5B-1,0%5D,%5B-0.57919,-0.57919%5D,%5B0,-1%5D,%5B0.57919,-0.57919%5D%5D&x=1
Further explanation at https://home.6t.lt/?s=%23mirror_polygon_66c
Use querySelector("txt").textContent.split(/%([^\n]*)\n/) and scale coordinates by 5e-6
]]><txt>
%#f9ab
 353307 -743307
 382690 -643040
 299983 -579192
 382690 -515345
 353307 -415077
 457747 -412037
 492912 -313649
 579192 -372577
 603301 -356111
 693603 -421719
 579192 -579192

-353307 -743307
-382690 -643040
-299983 -579192
-382690 -515345
-353307 -415077
-457747 -412037
-492912 -313649
-579192 -372577
-603301 -356111
-693603 -421719
-579192 -579192

 447293  140646
 378612  098445
 385369  178772
 305000  185000
 357681  246014
 296322  298292
 374805  316688
 355893  395048
 430200  363800
 460959  438311
 502707  369354
 571388  411555
 566415  352437
 480030  086572

-041337  017108
 045161  035106
-009399  104597
 050000  170000
-034985  194150
-025374  281976
-108323  251561
-152170  328263
-201400  254900
-281957  291181
-278663  202892
-365161  184894
-310601  115403
-370000  050000
-285015  025850
-294627 -061976
-211677 -031561
-167830 -108263
-118600 -034900
-038043 -071181

%#fedb
 693603 -421719
 387307 -199109
 621273  521273
 1e6     0

 379547  724243
 179198  448486
-469146  659146
 0       1e6

-621273  521273
-387307 -199109
-693603 -421719
-1e6     0

%FireBrick
 770203 -316289

 628180 -120812

 628180  120812

 770203  316289

 284660  793183

 108731  665362

-108731  665362

-284660  793183

-770203  316289

-628180  120812

-628180 -120812

-770203 -316289
</txt></about></metadata><defs><g id="b">
	<path fill="#f9ab" d="M1.766535-3.716535L1.91345-3.2152L1.499915-2.89596L1.91345-2.576725L1.766535-2.075385L2.288735-2.060185L2.46456-1.568245l.4314-.29464L3.016505-1.780555L3.468015-2.108595L2.89596-2.89596ZM-1.766535-3.716535L-1.91345-3.2152L-1.499915-2.89596L-1.91345-2.576725L-1.766535-2.075385L-2.288735-2.060185L-2.46456-1.568245l-.4314-.29464L-3.016505-1.780555L-3.468015-2.108595L-2.89596-2.89596ZM2.236465,.70323L1.89306,.492225L1.926845,.89386L1.525,.925L1.788405,1.23007L1.48161,1.49146L1.874025,1.58344L1.779465,1.97524L2.151,1.819L2.304795,2.191555L2.513535,1.84677L2.85694,2.057775L2.832075,1.762185L2.40015,.43286ZM-.206685,.08554L.225805,.17553L-.046995,.522985L.25,.85L-.174925,.97075L-.12687,1.40988L-.541615,1.257805L-.76085,1.641315L-1.007,1.2745L-1.409785,1.455905L-1.393315,1.01446L-1.825805,.92447L-1.553005,.577015L-1.85,.25l.424925-.12075L-1.473135-.30988L-1.058385-.157805L-.83915-.541315L-.593-.1745L-.190215-.355905Z"/>
	<path fill="#fedb" d="M3.468015-2.108595L1.936535-.995545L3.106365,2.606365L5,0ZM1.897735,3.621215L.89599,2.24243L-2.34573,3.29573L0,5ZM-3.106365,2.606365L-1.936535-.995545L-3.468015-2.108595L-5,0Z"/>
	<path fill="none" stroke="FireBrick" stroke-width="0.13" stroke-linecap="round" d="M3.851015,-1.581445ZM3.1409,-.60406ZM3.1409,.60406ZM3.851015,1.581445ZM1.4233,3.965915ZM.543655,3.32681ZM-.543655,3.32681ZM-1.4233,3.965915ZM-3.851015,1.581445ZM-3.1409,.60406ZM-3.1409,-.60406ZM-3.851015,-1.581445Z"/>
</g></defs><g xmlns:xlink="http://www.w3.org/1999/xlink">
<image x="3.6997" y="8.5054" width="110.1734" height="54.4334" preserveAspectRatio="xMinYMin slice" href="https://home.6t.lt/5e4/lederle-view.webp" xlink:href="https://home.6t.lt/5e4/lederle-view.webp"/>
<use href="#b" xlink:href="#b" transform="matrix(1,0,0,1,20,30)"/>
<use href="#b" xlink:href="#b" transform="matrix(-.309,-.951,-.951,.309,13.455,25.2447)"/>
<use href="#b" xlink:href="#b" transform="matrix(-.809,.5878,-.5878,-.809,15.955,17.5506)"/>
<use href="#b" xlink:href="#b" transform="matrix(.809,.5878,.5878,-.809,24.0452,17.5507)"/>
<use href="#b" xlink:href="#b" transform="matrix(.309,-.951,.951,.309,26.545,25.245)"/>
<use href="#b" xlink:href="#b" transform="matrix(1,0,0,-1,31.3,31.7902)"/>
<use href="#b" xlink:href="#b" transform="matrix(-1,0,0,1,33.0902,20.49)"/>
<use href="#b" xlink:href="#b" transform="matrix(-.309,.951,-.951,-.309,37.8452,27.0352)"/>
<use href="#b" xlink:href="#b" transform="matrix(-.809,-.5878,-.5878,.809,40.345,34.7295)"/>
<use href="#b" xlink:href="#b" transform="matrix(.309,-.951,.951,.309,48.0392,32.2297)"/>
<use href="#b" xlink:href="#b" transform="matrix(.809,.5878,.5878,-.809,45.5395,24.5355)"/>
<use href="#b" xlink:href="#b" transform="matrix(-.809,-.5878,-.5878,.809,55.7335,29.73)"/>
<use href="#b" xlink:href="#b" transform="matrix(-.309,.951,-.951,-.309,58.2333,37.4242)"/>
<use href="#b" xlink:href="#b" transform="matrix(.809,.5878,.5878,-.809,50.539,39.924)"/>
<use href="#b" xlink:href="#b" transform="matrix(1,0,0,-1,64.7785,32.6692)"/>
<use href="#b" xlink:href="#b" transform="matrix(.309,-.951,.951,.309,69.5335,39.2145)"/>
<use href="#b" xlink:href="#b" transform="matrix(-1,0,0,1,62.9883,43.9695)"/>
<use href="#b" xlink:href="#b" transform="matrix(-1,0,0,1,76.0788,34.4594)"/>
<use href="#b" xlink:href="#b" transform="matrix(-.309,.951,-.951,-.309,80.8338,41.0047)"/>
<use href="#b" xlink:href="#b" transform="matrix(1,0,0,-1,74.2885,45.7597)"/>
<use href="#b" xlink:href="#b" transform="matrix(-.809,-.5878,-.5878,.809,83.3335,48.699)"/>
<use href="#b" xlink:href="#b" transform="matrix(.309,-.951,.951,.309,91.0278,46.1992)"/>
<use href="#b" xlink:href="#b" transform="matrix(.809,.5878,.5878,-.809,88.528,38.5049)"/>
<use href="#b" xlink:href="#b" transform="matrix(.809,.5878,.5878,-.809,93.5276,53.8935)"/>
<use href="#b" xlink:href="#b" transform="matrix(-.809,.5878,-.5878,-.809,101.6177,53.8936)"/>
<use href="#b" xlink:href="#b" transform="matrix(-.309,-.951,-.951,.309,104.1178,46.1995)"/>
<use href="#b" xlink:href="#b" transform="matrix(1,0,0,1,97.5727,41.4442)"/></g></svg>
